<svg width="174" height="44" viewBox="0 0 174 44" fill="none" xmlns="http://www.w3.org/2000/svg">
<path d="M21.7462 0C9.79213 0 0 9.66496 0 21.7462C0 33.7002 9.66496 43.4923 21.7462 43.4923C33.7002 43.4923 43.4923 33.8274 43.4923 21.7462C43.4923 9.66496 33.7002 0 21.7462 0ZM21.7462 41.7119C10.6823 41.7119 1.78038 32.81 1.78038 21.7462C1.78038 10.6823 10.6823 1.78039 21.7462 1.78039C32.81 1.78039 41.7119 10.6823 41.7119 21.7462C41.8391 32.6828 32.81 41.7119 21.7462 41.7119Z" fill="#77787B"/>
<path d="M21.7474 37.8979C22.5105 37.8979 22.892 37.3892 23.0192 36.7533C23.1463 37.0077 23.4007 37.262 23.655 37.3892C23.9093 37.3892 24.2909 37.3892 24.5452 37.262C24.7995 37.1349 25.0539 36.8805 25.181 36.6262C25.3082 36.3718 25.3082 35.9903 25.181 35.736C25.5626 36.2447 26.0712 36.3718 26.7071 36.1175C27.4701 35.736 27.7245 35.2273 27.3429 34.4643C26.4528 32.3024 25.5626 30.2676 24.6724 28.1057C24.5452 27.8514 24.5452 27.7242 24.418 27.4699C24.2909 27.3427 24.2909 27.2156 24.1637 27.0884C24.1637 26.9612 24.0365 26.9612 23.9093 26.834C25.3082 26.9612 25.9441 27.4699 26.3256 27.7242C26.4528 27.8514 26.4528 27.8514 26.8343 27.7242C26.9614 27.7242 27.2158 27.7242 27.3429 27.7242C27.4701 27.8514 27.7245 27.9786 27.8516 27.9786C28.3603 28.3601 28.869 28.7416 29.3777 29.1231C29.632 29.3775 29.8864 29.6318 29.8864 30.0133C29.8864 30.2676 29.1233 30.9035 28.9962 31.1578C28.4875 31.6665 29.2505 32.4295 30.2679 32.4295C30.0135 32.1752 29.8864 31.9209 30.0135 31.6665C30.1407 31.6665 30.2679 31.6665 30.5222 31.5394C30.7766 31.4122 30.6494 30.7763 30.7765 30.6492C31.1581 30.2676 32.1754 30.2676 32.9384 30.2676C33.1928 30.2676 33.5743 30.1405 33.4471 29.759C33.8286 29.759 33.9558 30.1405 33.9558 30.3948C34.3373 30.1405 34.5917 29.2503 33.32 28.9959C33.5743 28.7416 33.9558 28.7416 34.2101 28.9959C34.4645 28.6144 33.8286 27.9786 32.8113 28.3601C32.8113 28.3601 32.3026 27.7242 31.0309 29.2503C30.9037 29.1231 30.6494 28.9959 30.5222 28.8688C30.0135 28.3601 28.7418 27.0884 28.7418 27.0884C28.7418 26.3254 28.6146 24.9265 27.7245 24.1635C27.3429 23.7819 26.9614 23.6548 26.0712 23.4004C26.0712 23.4004 26.4527 22.7646 26.5799 22.5103C27.3429 23.2733 28.869 23.5276 28.869 22.2559C30.1407 23.5276 31.2852 22.7646 31.2852 22.0016C31.2852 22.3831 31.4124 22.7646 31.5396 23.1461C31.6667 23.5276 32.3026 25.1808 33.7015 25.1808C33.7015 25.6895 33.7015 27.5971 35.4819 27.9786C35.609 27.9786 35.609 27.9786 35.7362 28.1057C36.4992 28.9959 39.4241 29.8861 39.6785 29.6318C39.4241 29.5046 39.0426 29.2503 39.0426 28.2329C39.0426 27.5971 38.9155 24.0363 38.9155 19.0766C38.9155 17.2963 38.7883 11.5736 33.0656 10.8106C32.1754 10.6834 31.4124 10.8106 30.6494 11.3192C29.632 12.0823 29.1233 13.354 29.7592 14.7528V14.88C30.0135 15.2615 29.8864 15.5159 29.632 15.7702C29.1233 16.2789 28.6147 16.5332 27.9788 16.6604C27.5973 16.6604 27.2158 16.5332 26.9614 16.2789C26.3256 15.643 25.9441 14.88 25.6897 13.9898C25.4354 12.3366 25.8169 11.4464 25.8169 11.3192C26.3256 10.429 27.2158 9.66602 28.3603 9.66602C28.869 8.64866 30.395 9.03017 30.395 9.03017C30.7765 9.15734 30.9037 9.15734 31.0309 9.41168C31.0309 9.41168 31.6667 8.39432 31.0309 8.01281C30.395 7.6313 28.9962 7.50413 28.9962 7.50413C28.9962 6.86827 27.9788 6.35959 25.9441 6.74111C23.655 7.12262 23.1463 6.23242 23.1463 6.23242C23.0191 7.37696 23.9093 7.88564 24.1637 8.13998C23.2735 9.15734 22.0018 11.0649 21.7474 13.7355C21.4931 11.0649 20.2214 9.15734 19.3312 8.13998C19.5855 8.01281 20.4757 7.37696 20.3486 6.23242C20.3486 6.23242 19.8399 7.12262 17.5508 6.74111C15.6433 6.35959 14.4987 6.86827 14.4987 7.50413C14.4987 7.50413 13.0998 7.6313 12.464 8.01281C11.8281 8.39432 12.464 9.41168 12.464 9.41168C12.5912 9.28451 12.7183 9.15734 13.0998 9.03017C13.0998 9.03017 14.6259 8.64866 15.1346 9.66602C16.2791 9.79319 17.1693 10.429 17.678 11.3192C17.678 11.3192 18.1867 12.2094 17.8052 13.9898C17.678 14.88 17.1693 15.643 16.5335 16.2789C16.2791 16.5332 15.8976 16.7876 15.5161 16.6604C14.8802 16.5332 14.3716 16.2789 13.8629 15.7702C13.6085 15.5159 13.4814 15.2615 13.7357 14.88V14.7528C14.3716 13.354 13.8629 12.0823 12.8455 11.3192C12.0825 10.8106 11.3195 10.6834 10.4293 10.8106C4.83377 11.5736 4.57943 17.2963 4.57943 19.0766C4.57943 24.0363 4.45226 27.5971 4.45226 28.2329C4.45226 29.2503 4.07075 29.5046 3.81641 29.6318C4.19792 29.8861 7.12284 28.9959 7.75869 28.1057C7.75869 28.1057 7.88586 27.9786 8.01303 27.9786C9.79341 27.5971 9.79342 25.6895 9.79342 25.1808C11.1923 25.1808 11.8281 23.5276 11.9553 23.1461C12.0825 22.7646 12.2097 22.3831 12.2097 22.0016C12.2097 22.7646 13.3542 23.4004 14.6259 22.2559C14.6259 23.5276 16.1519 23.2733 16.915 22.5103C17.0421 22.7646 17.4236 23.4004 17.4236 23.4004C16.5335 23.5276 16.1519 23.7819 15.7704 24.1635C14.7531 25.0537 14.7531 26.4525 14.7531 27.0884C14.7531 27.0884 13.4814 28.3601 12.9727 28.8688C12.8455 28.9959 12.5912 29.1231 12.464 29.2503C11.0651 27.7242 10.6836 28.3601 10.6836 28.3601C9.66624 27.9786 9.15756 28.6144 9.28473 28.9959C9.53907 28.7416 9.92059 28.8688 10.1749 28.9959C8.77606 29.2503 9.15757 30.2676 9.53908 30.3948C9.53908 30.1405 9.66624 29.759 10.0478 29.759C10.0478 30.1405 10.3021 30.2676 10.5564 30.2676C11.1923 30.2676 12.3368 30.2676 12.7183 30.6492C12.9727 30.7763 12.8455 31.4122 12.9727 31.5394C13.0998 31.6665 13.3542 31.6665 13.4814 31.6665C13.4814 31.9209 13.4814 32.048 13.227 32.4295C14.2444 32.5567 14.8802 31.6665 14.4987 31.1578C14.2444 30.9035 13.6085 30.2676 13.6085 30.0133C13.6085 29.759 13.8629 29.3775 14.1172 29.1231C14.6259 28.7416 15.1346 28.3601 15.6433 27.9786C15.7704 27.8514 15.8976 27.7242 16.1519 27.7242C16.2791 27.5971 16.5335 27.5971 16.6606 27.7242C17.0421 27.8514 17.0421 27.8514 17.1693 27.7242C17.5508 27.4699 18.1867 26.9612 19.5855 26.834C19.4584 26.834 19.4584 26.9612 19.3312 27.0884C19.204 27.2156 19.204 27.3427 19.0769 27.4699C18.9497 27.5971 18.9497 27.8514 18.8225 28.1057C17.9323 30.2676 17.0421 32.3024 16.1519 34.4643C15.8976 35.2273 16.1519 35.736 16.7878 36.1175C17.2965 36.3718 17.9323 36.2447 18.3138 35.736C18.1867 36.1175 18.1867 36.3718 18.3138 36.6262C18.441 36.8805 18.6953 37.1349 18.9497 37.262C19.204 37.3892 19.5855 37.3892 19.8399 37.3892C20.2214 37.262 20.3486 37.1349 20.4757 36.7533C20.6029 37.3892 20.9844 37.8979 21.7474 37.8979Z" fill="#77787B"/>
<path d="M58.3724 14.1157C59.5169 14.1157 62.0604 13.9885 63.4592 13.8613C63.4592 14.1157 63.4592 14.4972 63.4592 14.6243C63.4592 14.7515 63.4592 15.133 63.4592 15.3874C62.1875 15.2602 60.1528 15.133 59.517 15.133C59.0083 15.133 57.3551 15.133 56.3377 15.2602V20.6014H57.4822C59.7713 20.6014 64.3494 20.9829 64.3494 24.9252C64.3494 28.1044 61.6789 29.5033 58.2453 29.5033C57.8637 29.5033 56.4649 29.5033 55.4475 29.5033C55.066 29.5033 54.5573 29.5033 54.1758 29.5033C54.303 27.0871 54.303 23.9078 54.303 21.2372C54.303 18.821 54.303 15.133 54.1758 13.9885C55.5747 13.9885 57.8637 14.1157 58.3724 14.1157ZM56.3377 28.2316C56.8464 28.2316 57.6094 28.2316 58.1181 28.2316C60.6615 28.2316 62.0604 27.0871 62.0604 24.798C62.0604 22.3818 60.28 21.6187 56.2105 21.6187V28.2316H56.3377Z" fill="#77787B"/>
<path d="M66.7652 19.8385C67.6554 18.8212 69.1814 18.3125 70.4531 18.3125C72.7422 18.3125 74.2682 19.457 74.2682 22.1276V27.4688C74.2682 28.6133 74.5226 28.8677 74.9041 28.8677C75.0313 28.8677 75.2856 28.8676 75.4128 28.7405L75.5399 29.2492C74.9041 29.6307 74.2682 29.6307 73.8867 29.6307C73.1237 29.6307 72.7422 29.2492 72.615 28.7405L72.4879 28.2318C71.3433 29.122 70.0716 29.6307 69.0543 29.6307C67.1467 29.6307 65.875 28.6133 65.875 26.8329C65.875 24.9254 67.2739 24.0352 69.3086 23.6537L71.4705 23.2722C72.2335 23.145 72.615 22.8906 72.615 22.382C72.615 20.0929 71.5977 19.457 69.9445 19.457C68.6727 19.457 67.7825 19.8386 67.0195 21.2374H66.7652V19.8385ZM72.615 23.908L71.2162 24.1623C69.6901 24.4167 67.9097 24.9254 67.9097 26.5786C67.9097 27.8503 68.5456 28.4861 69.9445 28.4861C70.8346 28.4861 71.5977 28.2318 72.4879 27.2144V23.908H72.615Z" fill="#77787B"/>
<path d="M78.5899 18.6934C78.8442 18.6934 79.2257 18.6934 79.6072 18.6934C79.48 20.3466 79.3529 23.0172 79.3529 23.1443C80.2431 23.1443 81.5148 23.2715 82.2778 23.2715C83.0408 23.2715 84.3125 23.2715 84.9484 23.1443C84.9484 23.0172 84.9484 20.3466 84.8212 18.6934C85.2027 18.6934 85.7114 18.6934 85.9657 18.6934C86.2201 18.6934 86.6016 18.6934 86.9831 18.6934C86.8559 20.3466 86.7288 23.0172 86.7288 24.1617C86.7288 25.0519 86.7288 27.9768 86.9831 29.63C86.6016 29.63 86.3472 29.63 85.9657 29.63C85.5842 29.63 85.2027 29.63 84.8212 29.63C84.9484 27.9768 84.9484 25.0519 84.9484 24.416C84.0582 24.2889 82.6593 24.2889 82.2778 24.2889C81.6419 24.2889 80.2431 24.2889 79.3529 24.416C79.3529 25.1791 79.3529 27.9768 79.6072 29.63C79.2257 29.63 78.9714 29.63 78.5899 29.63C78.2083 29.63 77.8268 29.63 77.4453 29.63C77.5725 27.9768 77.6996 25.0519 77.6996 24.1617C77.6996 23.0172 77.6997 20.3466 77.4453 18.6934C77.8268 18.6934 78.3355 18.6934 78.5899 18.6934Z" fill="#77787B"/>
<path d="M90.9258 18.6936C91.1801 18.6936 91.5617 18.6936 91.9432 18.6936C91.816 20.3468 91.816 23.0174 91.816 23.3989H92.1975C92.9605 23.3989 96.5213 19.3294 96.9028 18.6936C97.1571 18.6936 97.6658 18.6936 97.9202 18.6936C98.1745 18.6936 98.6832 18.6936 98.9375 18.6936L93.8507 23.2717C94.4866 24.0347 97.9202 27.8499 99.4462 29.5031C98.8104 29.5031 98.4289 29.5031 98.1745 29.5031C97.793 29.5031 97.1571 29.5031 96.7756 29.5031C96.0126 28.2314 93.5964 25.4336 92.1975 23.9076H91.816C91.816 24.6706 91.816 27.8499 91.9432 29.5031C91.6888 29.5031 91.3073 29.5031 90.9258 29.5031C90.5443 29.5031 90.1628 29.5031 89.7812 29.5031C89.9084 27.8499 90.0356 24.9249 90.0356 24.0347C90.0356 22.8902 90.0356 20.2196 89.7812 18.5664C90.1628 18.6936 90.5443 18.6936 90.9258 18.6936Z" fill="#77787B"/>
<path d="M108.73 13.9885C109.494 13.9885 110.384 13.8613 111.02 13.8613C114.962 13.8613 116.488 15.0059 116.488 17.8036C116.488 21.2372 113.563 22.3817 110.002 22.3817C109.748 22.3817 108.985 22.3817 108.603 22.2546V25.9425C108.603 26.9599 108.603 28.3588 108.73 29.3761C108.349 29.3761 107.967 29.3761 107.586 29.3761C107.204 29.3761 106.696 29.3761 106.441 29.3761C106.569 26.9599 106.569 23.7806 106.569 21.11C106.569 18.6938 106.569 15.0059 106.441 13.8613C107.332 13.8613 108.222 13.9885 108.73 13.9885ZM109.621 21.2372C112.673 21.2372 114.326 20.0927 114.326 17.8036C114.326 15.6417 112.673 15.133 110.511 15.133C110.129 15.133 108.858 15.133 108.603 15.133V21.11C108.985 21.2372 109.366 21.2372 109.621 21.2372Z" fill="#77787B"/>
<path d="M127.681 24.035C127.681 27.3414 125.519 29.7576 122.212 29.7576C118.906 29.7576 116.871 27.3414 116.871 24.2893C116.871 20.7285 119.16 18.4395 122.467 18.4395C125.646 18.4395 127.681 20.7285 127.681 24.035ZM118.906 24.1621C118.906 26.5784 119.923 28.8674 122.212 28.8674C124.374 28.8674 125.646 26.7055 125.646 23.9078C125.646 21.6187 124.756 19.2025 122.339 19.2025C120.05 19.2025 118.906 21.6187 118.906 24.1621Z" fill="#77787B"/>
<path d="M138.107 20.9826H137.852C137.089 19.7109 136.072 19.3294 134.928 19.3294C132.384 19.3294 131.24 21.7457 131.24 24.1619C131.24 26.8325 132.766 28.9944 135.436 28.9944C136.326 28.9944 137.089 28.8672 138.361 27.4683L138.615 27.7227L138.361 28.74C137.344 29.3759 136.199 29.7574 134.8 29.7574C131.494 29.7574 129.332 27.4683 129.332 24.1619C129.332 20.7283 131.748 18.5664 135.182 18.5664C136.326 18.5664 137.471 18.8208 138.87 19.4566L138.107 20.9826Z" fill="#77787B"/>
<path d="M149.043 20.9826H148.788C148.025 19.7109 147.008 19.3294 145.863 19.3294C143.32 19.3294 142.175 21.7457 142.175 24.1619C142.175 26.8325 143.701 28.9944 146.372 28.9944C147.262 28.9944 148.025 28.8672 149.297 27.4683L149.424 27.7227L149.17 28.74C148.152 29.3759 147.008 29.7574 145.609 29.7574C142.303 29.7574 140.141 27.4683 140.141 24.1619C140.141 20.7283 142.557 18.5664 145.99 18.5664C147.135 18.5664 148.28 18.8208 149.678 19.4566L149.043 20.9826Z" fill="#77787B"/>
<path d="M152.222 29.3761C152.095 29.3761 151.713 29.3761 151.586 29.3761C151.713 27.7229 151.84 24.798 151.84 23.9078C151.84 22.7633 151.84 20.0927 151.586 18.4395C151.967 18.4395 152.476 18.4395 152.73 18.4395C152.985 18.4395 153.366 18.4395 153.748 18.4395C153.621 20.0927 153.493 22.7633 153.493 23.9078C153.493 24.798 153.493 26.0697 153.493 26.7055C154.638 25.3067 158.835 19.9655 159.852 18.5666C160.106 18.5666 160.234 18.5666 160.488 18.5666C160.615 18.5666 161.124 18.5666 161.251 18.5666C161.124 20.2198 160.997 22.8904 160.997 24.035C160.997 24.9252 160.997 27.8501 161.251 29.5033C160.869 29.5033 160.615 29.5033 160.234 29.5033C159.852 29.5033 159.471 29.5033 159.089 29.5033C159.216 27.8501 159.343 24.9252 159.343 24.035C159.343 22.8904 159.343 21.4915 159.343 21.11C157.944 22.6361 154.002 27.5957 152.858 29.5033C152.603 29.3761 152.349 29.3761 152.222 29.3761Z" fill="#77787B"/>
<path d="M164.304 29.3761C164.177 29.3761 163.795 29.3761 163.668 29.3761C163.795 27.7229 163.795 24.798 163.795 23.9078C163.795 22.7633 163.795 20.0927 163.668 18.4395C164.049 18.4395 164.558 18.4395 164.812 18.4395C165.067 18.4395 165.448 18.4395 165.83 18.4395C165.576 20.2198 165.576 22.8904 165.576 24.035C165.576 24.9252 165.576 26.1969 165.576 26.8327C166.72 25.4338 170.917 20.0927 171.934 18.6938C172.188 18.6938 172.316 18.6938 172.57 18.6938C172.697 18.6938 173.206 18.6938 173.333 18.6938C173.206 20.2198 173.206 22.8904 173.206 24.035C173.206 24.9252 173.206 27.8501 173.333 29.5033C172.951 29.5033 172.697 29.5033 172.316 29.5033C171.934 29.5033 171.553 29.5033 171.171 29.5033C171.298 27.8501 171.298 24.9252 171.298 24.035C171.298 22.8904 171.298 21.4915 171.298 21.11C169.899 22.6361 165.957 27.5957 164.812 29.5033C164.685 29.3761 164.558 29.3761 164.304 29.3761Z" fill="#77787B"/>
</svg>
