<svg width="154" height="34" viewBox="0 0 154 34" fill="none" xmlns="http://www.w3.org/2000/svg">
<path fill-rule="evenodd" clip-rule="evenodd" d="M16.6273 2.27701C16.6273 1.82666 16.7652 1.38642 17.0236 1.01197C17.282 0.637518 17.6492 0.34567 18.0789 0.173329C18.5086 0.000987515 18.9814 -0.0441061 19.4375 0.0437528C19.8937 0.131612 20.3127 0.348476 20.6415 0.666921C20.9704 0.985367 21.1943 1.39109 21.2851 1.83279C21.3758 2.27448 21.3293 2.73231 21.1513 3.14838C20.9733 3.56445 20.6719 3.92007 20.2852 4.17027C19.8985 4.42048 19.4439 4.55402 18.9788 4.55402C18.67 4.55417 18.3641 4.49537 18.0787 4.38099C17.7934 4.26661 17.5341 4.0989 17.3157 3.88743C17.0973 3.67596 16.9241 3.42488 16.806 3.14856C16.6879 2.87223 16.6272 2.57607 16.6273 2.27701ZM16.5513 31.7219C16.5515 31.2716 16.6896 30.8314 16.9481 30.4571C17.2066 30.0828 17.574 29.7912 18.0037 29.619C18.4334 29.4468 18.9061 29.4019 19.3622 29.4899C19.8182 29.5779 20.2371 29.7948 20.5659 30.1133C20.8946 30.4318 21.1184 30.8375 21.2091 31.2792C21.2997 31.7208 21.2531 32.1786 21.0751 32.5946C20.8971 33.0106 20.5957 33.3662 20.209 33.6163C19.8223 33.8665 19.3677 34 18.9027 34C18.5937 34.0003 18.2878 33.9416 18.0023 33.8272C17.7167 33.7128 17.4573 33.545 17.2389 33.3333C17.0205 33.1217 16.8473 32.8705 16.7293 32.5939C16.6113 32.3174 16.5508 32.0211 16.5513 31.7219ZM24.1727 24.3428C24.1727 23.8924 24.3107 23.4522 24.5691 23.0778C24.8274 22.7033 25.1946 22.4115 25.6243 22.2391C26.054 22.0668 26.5268 22.0217 26.9829 22.1095C27.4391 22.1974 27.8581 22.4143 28.1869 22.7327C28.5158 23.0512 28.7397 23.4569 28.8305 23.8986C28.9212 24.3403 28.8747 24.7981 28.6967 25.2142C28.5187 25.6302 28.2173 25.9859 27.8306 26.2361C27.4439 26.4863 26.9893 26.6198 26.5242 26.6198C26.2154 26.62 25.9095 26.5612 25.6241 26.4468C25.3388 26.3324 25.0795 26.1647 24.8611 25.9532C24.6427 25.7417 24.4695 25.4907 24.3514 25.2143C24.2333 24.938 24.1726 24.6419 24.1727 24.3428ZM31.7942 16.9626C31.794 16.5122 31.9317 16.0719 32.1899 15.6973C32.4482 15.3227 32.8154 15.0306 33.245 14.8581C33.6747 14.6856 34.1475 14.6404 34.6037 14.7281C35.0599 14.8158 35.479 15.0326 35.808 15.351C36.137 15.6694 36.361 16.0751 36.4518 16.5169C36.5427 16.9586 36.4962 17.4165 36.3182 17.8326C36.1403 18.2487 35.8389 18.6044 35.4522 18.8547C35.0655 19.1049 34.6108 19.2385 34.1456 19.2385C33.8369 19.2386 33.5312 19.1799 33.2459 19.0656C32.9606 18.9513 32.7014 18.7836 32.483 18.5723C32.2646 18.3609 32.0914 18.11 31.9732 17.8338C31.8551 17.5576 31.7942 17.2616 31.7942 16.9626ZM8.00996 19.954L8.30735 20.2419C8.58636 20.519 8.93493 20.721 9.31887 20.8282C9.70281 20.9355 10.1089 20.9442 10.4974 20.8536C11.0409 20.736 11.6045 20.736 12.148 20.8536C12.5365 20.9442 12.9427 20.9355 13.3266 20.8282C13.7105 20.721 14.0591 20.519 14.3381 20.2419L14.6736 19.916C14.9602 19.6462 15.1692 19.3087 15.28 18.9368C15.3908 18.5649 15.3995 18.1714 15.3052 17.7953C15.2453 17.5332 15.2151 17.2656 15.2153 16.9972C15.2153 16.0386 15.6085 15.1192 16.3084 14.4412C17.0083 13.7632 17.9577 13.3822 18.9477 13.3819C19.2249 13.3821 19.5013 13.4117 19.7718 13.4701C20.1603 13.5607 20.5665 13.5519 20.9504 13.4447C21.3344 13.3374 21.6829 13.1354 21.9619 12.8584L22.2974 12.5325C22.5842 12.2628 22.7933 11.9253 22.9041 11.5534C23.0149 11.1814 23.0235 10.7879 22.929 10.4117C22.8692 10.1493 22.839 9.88132 22.8391 9.61255C22.8396 8.86374 23.0803 8.13357 23.5279 7.52301C23.9756 6.91245 24.6081 6.45167 25.3381 6.20437C26.068 5.95708 26.8592 5.93549 27.6023 6.14261C28.3454 6.34972 29.0037 6.7753 29.4862 7.3605C29.9687 7.94569 30.2515 8.66158 30.2954 9.40918C30.3394 10.1568 30.1425 10.8991 29.7318 11.5336C29.3211 12.1681 28.717 12.6633 28.003 12.9509C27.289 13.2384 26.5003 13.304 25.7462 13.1386C25.3576 13.0481 24.9514 13.0571 24.5674 13.1645C24.1835 13.2719 23.835 13.4741 23.5561 13.7514L23.2206 14.0762C22.9344 14.3462 22.7255 14.6837 22.6146 15.0555C22.5036 15.4273 22.4944 15.8206 22.5878 16.1969C22.7262 16.7925 22.7068 17.4123 22.5314 17.9987C22.356 18.5851 22.0302 19.119 21.5845 19.5508C21.1387 19.9825 20.5875 20.2981 19.9819 20.4681C19.3764 20.6381 18.7363 20.6571 18.1212 20.5232C17.7327 20.4326 17.3266 20.4414 16.9426 20.5486C16.5587 20.6559 16.2101 20.8579 15.9311 21.1349L15.5957 21.4608C15.3087 21.7304 15.0993 22.0678 14.9883 22.4398C14.8773 22.8117 14.8685 23.2053 14.9629 23.5816C15.0858 24.1104 15.0843 24.6592 14.9585 25.1873C14.8327 25.7155 14.5857 26.2095 14.2361 26.6328C13.8864 27.056 13.4429 27.3977 12.9384 27.6325C12.4339 27.8673 11.8813 27.9892 11.3216 27.9892C10.7618 27.9892 10.2093 27.8673 9.70475 27.6325C9.20024 27.3977 8.75675 27.056 8.40709 26.6328C8.05742 26.2095 7.8105 25.7155 7.6847 25.1873C7.55889 24.6592 7.55742 24.1104 7.68031 23.5816C7.77453 23.2053 7.76568 22.8118 7.6547 22.4398C7.54371 22.0679 7.3344 21.7304 7.04746 21.4608L6.75006 21.1728C6.47118 20.8956 6.12267 20.6934 5.73872 20.586C5.35477 20.4785 4.94857 20.4696 4.55998 20.5601C3.80526 20.726 3.01595 20.6606 2.30124 20.3731C1.58653 20.0856 0.981784 19.5902 0.570595 18.9553C0.159407 18.3204 -0.0379136 17.5774 0.00602164 16.8292C0.0499569 16.081 0.332959 15.3645 0.81582 14.7788C1.29868 14.1931 1.95754 13.7672 2.7013 13.5601C3.44506 13.3529 4.23692 13.3746 4.96736 13.6223C5.6978 13.8699 6.33073 14.3313 6.77854 14.9425C7.22636 15.5537 7.46697 16.2846 7.46705 17.034C7.4672 17.3024 7.43702 17.5701 7.37711 17.8321C7.28349 18.2086 7.29262 18.6021 7.40356 18.9741C7.51451 19.3461 7.72349 19.6838 8.00996 19.954ZM9.00588 9.6572C9.00588 9.20685 9.14379 8.76661 9.40217 8.39216C9.66055 8.01771 10.0278 7.72586 10.4575 7.55352C10.8871 7.38118 11.3599 7.33608 11.8161 7.42394C12.2722 7.5118 12.6912 7.72867 13.02 8.04711C13.3489 8.36556 13.5728 8.77128 13.6636 9.21298C13.7543 9.65468 13.7078 10.1125 13.5298 10.5286C13.3518 10.9446 13.0504 11.3003 12.6637 11.5505C12.277 11.8007 11.8224 11.9342 11.3573 11.9342C10.7344 11.9339 10.137 11.6944 9.69613 11.2681C9.25532 10.8419 9.0071 10.2638 9.00588 9.66055V9.6572Z" fill="#2D9CDB"/>
<path d="M46.006 25.2606C45.8278 25.2606 45.682 25.2047 45.5685 25.093C45.4551 24.9812 45.3984 24.8376 45.3984 24.662V9.09859C45.3984 8.92301 45.4551 8.77934 45.5685 8.66761C45.682 8.55587 45.8278 8.5 46.006 8.5H49.1409C49.3191 8.5 49.4649 8.55587 49.5783 8.66761C49.6917 8.77934 49.7484 8.92301 49.7484 9.09859V14.869H51.2308L54.8275 8.95493C54.9085 8.82723 55.0219 8.72348 55.1677 8.64366C55.3135 8.54789 55.4998 8.5 55.7266 8.5H59.2261C59.3881 8.5 59.5177 8.55587 59.6149 8.66761C59.7121 8.76338 59.7607 8.87512 59.7607 9.00282C59.7607 9.09859 59.7283 9.19437 59.6635 9.29014L55.1434 16.569L60.1009 24.4465C60.1496 24.5103 60.1739 24.5981 60.1739 24.7099C60.1739 24.8695 60.1171 25.0052 60.0037 25.1169C59.9065 25.2127 59.7769 25.2606 59.6149 25.2606H56.0183C55.759 25.2606 55.5646 25.2047 55.435 25.093C55.3216 24.9812 55.2325 24.8854 55.1677 24.8056L51.4009 18.7H49.7484V24.662C49.7484 24.8376 49.6917 24.9812 49.5783 25.093C49.4649 25.2047 49.3191 25.2606 49.1409 25.2606H46.006Z" fill="#37464F"/>
<path d="M68.1509 25.4999C66.79 25.4999 65.6397 25.2844 64.7 24.8534C63.7766 24.4224 63.0637 23.8079 62.5615 23.0098C62.0755 22.1957 61.8 21.2299 61.7352 20.1126C61.719 19.7933 61.7109 19.4342 61.7109 19.0351C61.7109 18.6201 61.719 18.2609 61.7352 17.9576C61.8 16.8243 62.0917 15.8586 62.6101 15.0605C63.1285 14.2623 63.8495 13.6478 64.7729 13.2168C65.7126 12.7858 66.8386 12.5703 68.1509 12.5703C69.4794 12.5703 70.6053 12.7858 71.5288 13.2168C72.4685 13.6478 73.1975 14.2623 73.716 15.0605C74.2344 15.8586 74.526 16.8243 74.5908 17.9576C74.607 18.2609 74.6151 18.6201 74.6151 19.0351C74.6151 19.4342 74.607 19.7933 74.5908 20.1126C74.526 21.2299 74.2425 22.1957 73.7403 23.0098C73.2542 23.8079 72.5414 24.4224 71.6017 24.8534C70.6783 25.2844 69.528 25.4999 68.1509 25.4999ZM68.1509 22.5788C68.8799 22.5788 69.4065 22.3633 69.7305 21.9323C70.0707 21.5013 70.2651 20.8548 70.3137 19.9929C70.3299 19.7534 70.338 19.4342 70.338 19.0351C70.338 18.636 70.3299 18.3168 70.3137 18.0774C70.2651 17.2314 70.0707 16.5929 69.7305 16.1619C69.4065 15.7149 68.8799 15.4914 68.1509 15.4914C67.438 15.4914 66.9115 15.7149 66.5713 16.1619C66.231 16.5929 66.0447 17.2314 66.0123 18.0774C65.9961 18.3168 65.988 18.636 65.988 19.0351C65.988 19.4342 65.9961 19.7534 66.0123 19.9929C66.0447 20.8548 66.231 21.5013 66.5713 21.9323C66.9115 22.3633 67.438 22.5788 68.1509 22.5788Z" fill="#37464F"/>
<path d="M77.5872 25.2612C77.4252 25.2612 77.2875 25.2053 77.174 25.0936C77.0606 24.9818 77.0039 24.8461 77.0039 24.6865V13.4091C77.0039 13.2335 77.0606 13.0898 77.174 12.9781C77.2875 12.8663 77.4333 12.8105 77.6115 12.8105H80.4791C80.6411 12.8105 80.7788 12.8663 80.8922 12.9781C81.0218 13.0898 81.0866 13.2335 81.0866 13.4091V22.1485L79.993 21.6217L85.9955 13.1936C86.0766 13.0818 86.1738 12.994 86.2872 12.9302C86.4006 12.8504 86.5302 12.8105 86.676 12.8105H89.2763C89.4383 12.8105 89.576 12.8663 89.6894 12.9781C89.8028 13.0898 89.8595 13.2255 89.8595 13.3851V24.6626C89.8595 24.8382 89.8028 24.9818 89.6894 25.0936C89.576 25.2053 89.4302 25.2612 89.252 25.2612H86.3844C86.2062 25.2612 86.0604 25.2053 85.9469 25.0936C85.8335 24.9818 85.7768 24.8382 85.7768 24.6626V16.1865L86.8947 16.402L80.8436 24.8781C80.7788 24.9898 80.6897 25.0856 80.5763 25.1654C80.4629 25.2292 80.3252 25.2612 80.1631 25.2612H77.5872Z" fill="#37464F"/>
<path d="M93.1075 25.2612C92.9293 25.2612 92.7835 25.2053 92.6701 25.0936C92.5567 24.9818 92.5 24.8382 92.5 24.6626V13.4091C92.5 13.2335 92.5567 13.0898 92.6701 12.9781C92.7835 12.8663 92.9293 12.8105 93.1075 12.8105H95.9751C96.1371 12.8105 96.2749 12.8663 96.3883 12.9781C96.5179 13.0898 96.5827 13.2335 96.5827 13.4091V17.3837H100.957V13.4091C100.957 13.2335 101.013 13.0898 101.127 12.9781C101.24 12.8663 101.386 12.8105 101.564 12.8105H104.432C104.594 12.8105 104.732 12.8663 104.845 12.9781C104.975 13.0898 105.039 13.2335 105.039 13.4091V24.6626C105.039 24.8382 104.975 24.9818 104.845 25.0936C104.732 25.2053 104.594 25.2612 104.432 25.2612H101.564C101.386 25.2612 101.24 25.2053 101.127 25.0936C101.013 24.9818 100.957 24.8382 100.957 24.6626V20.5203H96.5827V24.6626C96.5827 24.8382 96.5179 24.9818 96.3883 25.0936C96.2749 25.2053 96.1371 25.2612 95.9751 25.2612H93.1075Z" fill="#37464F"/>
<path d="M110.097 25.5C109.92 25.5 109.775 25.4433 109.662 25.33C109.549 25.2167 109.492 25.071 109.492 24.8929V9.10714C109.492 8.92905 109.549 8.78333 109.662 8.67C109.775 8.55667 109.92 8.5 110.097 8.5H113.218C113.396 8.5 113.541 8.55667 113.654 8.67C113.767 8.78333 113.823 8.92905 113.823 9.10714V14.96H115.299L118.88 8.96143C118.96 8.83191 119.073 8.72667 119.218 8.64572C119.363 8.54857 119.549 8.5 119.775 8.5H123.259C123.42 8.5 123.549 8.55667 123.646 8.67C123.743 8.76714 123.791 8.88048 123.791 9.01C123.791 9.10714 123.759 9.20429 123.694 9.30143L119.194 16.6843L124.13 24.6743C124.178 24.739 124.202 24.8281 124.202 24.9414C124.202 25.1033 124.146 25.241 124.033 25.3543C123.936 25.4514 123.807 25.5 123.646 25.5H120.065C119.807 25.5 119.613 25.4433 119.484 25.33C119.372 25.2167 119.283 25.1195 119.218 25.0386L115.468 18.8457H113.823V24.8929C113.823 25.071 113.767 25.2167 113.654 25.33C113.541 25.4433 113.396 25.5 113.218 25.5H110.097Z" fill="#2D9CDB"/>
<path d="M126.768 25.4997C126.607 25.4997 126.47 25.443 126.357 25.3297C126.244 25.2164 126.188 25.0787 126.188 24.9168V13.4783C126.188 13.3002 126.244 13.1545 126.357 13.0411C126.47 12.9278 126.615 12.8711 126.792 12.8711H129.647C129.808 12.8711 129.945 12.9278 130.058 13.0411C130.187 13.1545 130.252 13.3002 130.252 13.4783V22.3426L129.163 21.8083L135.14 13.2597C135.221 13.1464 135.317 13.0573 135.429 12.9926C135.542 12.9116 135.671 12.8711 135.817 12.8711H138.405C138.567 12.8711 138.704 12.9278 138.817 13.0411C138.929 13.1545 138.987 13.2921 138.987 13.454V24.8926C138.987 25.0707 138.929 25.2164 138.817 25.3297C138.704 25.443 138.559 25.4997 138.381 25.4997H135.526C135.349 25.4997 135.204 25.443 135.091 25.3297C134.978 25.2164 134.922 25.0707 134.922 24.8926V16.2954L136.034 16.514L130.01 25.1111C129.945 25.2245 129.857 25.3216 129.744 25.4026C129.631 25.4673 129.495 25.4997 129.334 25.4997H126.768Z" fill="#2D9CDB"/>
<path d="M145.414 25.4997C145.253 25.4997 145.108 25.443 144.979 25.3297C144.866 25.2164 144.809 25.0707 144.809 24.8926V16.0526H141.132C140.971 16.0526 140.825 15.9959 140.696 15.8826C140.583 15.7692 140.527 15.6235 140.527 15.4454V13.4783C140.527 13.3002 140.583 13.1545 140.696 13.0411C140.825 12.9278 140.971 12.8711 141.132 12.8711H152.503C152.664 12.8711 152.801 12.9278 152.914 13.0411C153.043 13.1545 153.108 13.3002 153.108 13.4783V15.4454C153.108 15.6235 153.043 15.7692 152.914 15.8826C152.801 15.9959 152.664 16.0526 152.503 16.0526H148.825V24.8926C148.825 25.0707 148.769 25.2164 148.656 25.3297C148.543 25.443 148.398 25.4997 148.221 25.4997H145.414Z" fill="#2D9CDB"/>
</svg>
