<svg width="132" height="33" viewBox="0 0 132 33" fill="none" xmlns="http://www.w3.org/2000/svg">
<path d="M11.5155 21.803C13.2358 21.803 14.5465 21.227 15.4477 20.075C16.3693 18.9047 16.8301 17.387 16.8301 15.5219C16.8301 13.6567 16.3693 12.139 15.4477 10.9687C14.5465 9.79845 13.2358 9.2133 11.5155 9.2133C9.81566 9.2133 8.4947 9.79845 7.55263 10.9687C6.63103 12.139 6.17023 13.6567 6.17023 15.5219C6.17023 17.3687 6.63103 18.8773 7.55263 20.0476C8.4947 21.2179 9.81566 21.803 11.5155 21.803ZM19.3798 22.8727C17.3933 24.7927 14.7616 25.7527 11.4848 25.7527C8.208 25.7527 5.5763 24.7927 3.58975 22.8727C1.62367 20.9527 0.640625 18.5024 0.640625 15.5219C0.640625 12.5413 1.62367 10.091 3.58975 8.17102C5.5763 6.25102 8.208 5.29102 11.4848 5.29102C14.7616 5.29102 17.3933 6.25102 19.3798 8.17102C21.3664 10.091 22.3597 12.5413 22.3597 15.5219C22.3597 18.5024 21.3664 20.9527 19.3798 22.8727ZM28.3438 25.2864V9.7893H21.9541V5.67502H40.2325V9.7893H33.7813V25.2864H28.3438ZM50.666 25.7253C47.4711 25.7253 44.8599 24.7745 42.8324 22.8727C40.8253 20.9527 39.8218 18.5116 39.8218 15.5493C39.8218 12.587 40.8152 10.1367 42.8017 8.19844C44.7881 6.26017 47.3993 5.29102 50.6353 5.29102C53.1339 5.29102 55.2229 5.86702 56.9021 7.01902C58.8068 8.29901 59.9024 10.1002 60.1892 12.4224H54.7517C54.6085 11.5265 54.1681 10.7859 53.4308 10.2007C52.6935 9.61558 51.7515 9.32302 50.6045 9.32302C48.8842 9.32302 47.5736 9.89902 46.6724 11.051C45.7918 12.1847 45.3514 13.6842 45.3514 15.5493C45.3514 17.3779 45.8326 18.8682 46.7953 20.0202C47.7579 21.1722 49.0378 21.7482 50.6353 21.7482C51.823 21.7482 52.796 21.4464 53.5537 20.843C54.332 20.2396 54.7825 19.4533 54.9053 18.4842H60.3428C60.1789 20.459 59.2983 22.1322 57.7009 23.5036C55.9805 24.9847 53.6355 25.7253 50.666 25.7253ZM61.6683 25.2864V5.67502H78.3185V9.67959H67.1057V13.1904H76.7211V16.9756H67.1057V21.1722H78.5029V25.2864H61.6683ZM78.9308 25.2864L86.2114 15.0007L79.5452 5.67502H85.7506L89.4677 11.3802H89.5292L93.3077 5.67502H99.206L92.6933 14.9459L99.974 25.2864H93.5535L89.437 18.6487H89.3756L85.1055 25.2864H78.9308Z" fill="black"/>
<path d="M116.864 14.8148C115.364 13.4758 112.933 13.4758 111.433 14.8148C109.934 16.1537 109.934 18.3245 111.433 19.6635L120.258 27.5426C121.758 28.8816 124.189 28.8816 125.689 27.5426C127.188 26.2037 127.188 24.0328 125.689 22.6939L116.864 14.8148Z" fill="#D9D9D9"/>
<path d="M116.864 14.8148C115.364 13.4758 112.933 13.4758 111.433 14.8148C109.934 16.1537 109.934 18.3245 111.433 19.6635L120.258 27.5426C121.758 28.8816 124.189 28.8816 125.689 27.5426C127.188 26.2037 127.188 24.0328 125.689 22.6939L116.864 14.8148Z" fill="url(#paint0_linear_205_4153)"/>
<path d="M120.43 3.28155C118.931 1.94261 116.499 1.94261 115 3.28155C113.5 4.62049 113.5 6.79134 115 8.13028L123.824 16.0095C125.324 17.3484 127.755 17.3484 129.255 16.0095C130.755 14.6705 130.755 12.4997 129.255 11.1607L120.43 3.28155Z" fill="url(#paint1_linear_205_4153)"/>
<defs>
<linearGradient id="paint0_linear_205_4153" x1="111.433" y1="14.8148" x2="124.08" y2="28.9789" gradientUnits="userSpaceOnUse">
<stop stop-color="#00C0FF"/>
<stop offset="1" stop-color="#0186F0"/>
</linearGradient>
<linearGradient id="paint1_linear_205_4153" x1="115" y1="3.28155" x2="127.646" y2="17.4458" gradientUnits="userSpaceOnUse">
<stop stop-color="#00C0FF"/>
<stop offset="1" stop-color="#0186F0"/>
</linearGradient>
</defs>
</svg>
