<svg width="148" height="40" viewBox="0 0 148 40" fill="none" xmlns="http://www.w3.org/2000/svg">
<g clip-path="url(#clip0_205_4150)">
<path fill-rule="evenodd" clip-rule="evenodd" d="M19.6771 0C30.5446 0 39.3543 8.80976 39.3543 19.6771C39.3543 30.5446 30.5446 39.3543 19.6771 39.3543C8.80978 39.3543 0 30.5446 0 19.6771C0 8.80976 8.80978 0 19.6771 0ZM24.1125 35.6386C23.227 34.0107 22.351 32.4349 21.4752 30.8594C20.3326 28.804 19.1898 26.7483 18.228 24.9621L16.9108 22.5156L19.6839 22.6812C20.6126 22.7366 21.56 22.699 22.39 22.4916C22.9906 22.3415 23.5193 22.1038 23.9065 21.7471C24.2304 21.4487 24.507 21.0094 24.7041 20.4817C24.9123 19.9242 25.0269 19.2838 25.0149 18.6129C24.9879 17.0996 24.718 16.0529 24.1467 15.4024C23.6027 14.7831 22.6748 14.4288 21.3092 14.2747L7.26041 14.2261C6.52676 15.8942 6.11916 17.738 6.11916 19.6772C6.11916 27.1233 12.122 33.1664 19.5523 33.2336L21.2285 36.1669C20.7177 36.2143 20.2004 36.2397 19.6772 36.2397C10.5299 36.2397 3.11458 28.8245 3.11458 19.6772C3.11458 17.5352 3.52197 15.4887 4.26236 13.6098L4.28566 13.5508L4.30201 13.51L4.32209 13.4603L4.33794 13.4213L4.34229 13.4106L4.36269 13.361L4.38323 13.3115L4.40389 13.262L4.40535 13.2586L4.41793 13.2288L4.42476 13.2127L4.45266 13.1473L4.45494 13.1421L4.48824 13.0651L4.496 13.0473L4.50111 13.0357C4.79028 12.3755 5.12147 11.7378 5.49091 11.1262L21.5335 11.1818L21.5858 11.1874C23.7784 11.425 25.3705 12.1054 26.4761 13.3641C27.561 14.5993 28.068 16.2886 28.1087 18.5644C28.1276 19.6292 27.9416 20.657 27.6038 21.5615C27.2345 22.55 26.6803 23.4061 26.0053 24.0279C25.2033 24.7669 24.2144 25.2325 23.1422 25.5004C22.8192 25.5812 22.4882 25.6438 22.1526 25.6906C22.8316 26.9281 23.5062 28.1416 24.1807 29.355C24.6528 30.2042 25.1248 31.0533 25.584 31.8834C30.1125 29.6879 33.2352 25.0475 33.2352 19.6772C33.2352 12.1893 27.1651 6.11914 19.6772 6.11914C16.6682 6.11914 13.8885 7.09982 11.6395 8.75847H7.2242C10.2596 5.29893 14.7131 3.11458 19.6772 3.11458C28.8244 3.11458 36.2398 10.5299 36.2398 19.6772C36.2398 26.6809 31.8926 32.6697 25.7492 35.0913L25.7488 35.0906C25.2163 35.3006 24.6703 35.4838 24.1125 35.6386Z" fill="#565757"/>
<path fill-rule="evenodd" clip-rule="evenodd" d="M55.4712 30.6439H50.6758V8.71094H58.8089C60.1145 8.71094 61.3692 8.9758 62.5213 9.455C63.7166 9.95209 64.7881 10.6746 65.6796 11.5661C69.5342 15.4207 69.4771 21.3807 65.6796 25.1782C64.7881 26.0697 63.7166 26.7922 62.5213 27.2893C61.3692 27.7684 60.1145 28.0333 58.8089 28.0333H55.4712V30.6439ZM73.3949 30.6439H67.892L75.3978 8.71094H80.9007L88.4066 30.6439H82.9037L81.6013 26.045H74.6973L73.3949 30.6439ZM80.3878 21.7606L78.1493 13.8566L75.9107 21.7606H80.3878ZM131.634 30.6439H141.13C143.083 30.6439 144.734 29.8674 146.028 28.6164C147.324 27.3632 147.999 25.6355 147.999 23.7357C147.999 21.836 147.324 20.1083 146.028 18.8551C144.734 17.6042 143.083 16.8276 141.13 16.8276H136.984V13.2573H145.845V8.71094H131.634V30.6439ZM136.984 26.1048V21.3667H140.095C140.781 21.3667 141.401 21.634 141.846 22.0644C142.289 22.4926 142.564 23.0843 142.564 23.7357C142.564 24.3873 142.289 24.9788 141.846 25.4071C141.401 25.8375 140.781 26.1048 140.095 26.1048H136.984ZM128.437 30.6439H123.131L123.343 16.6809L121.897 19.6783L115.237 30.6439H109.802V8.71094H115.108L115.025 22.7943L116.324 20.1577L123.002 8.71094H128.437V30.6439ZM94.9347 30.6439H89.6287V8.71094H94.9347V17.2011H97.2029L101.664 8.71094H107.358L101.535 19.2892L107.746 30.6439H101.793L97.1242 21.7475H94.9347V30.6439ZM55.4712 13.1109V23.5039H58.8089C59.498 23.5039 60.1494 23.3686 60.7378 23.1239C62.7313 22.2948 63.876 20.2987 63.876 18.178C63.876 16.787 63.3053 15.5207 62.3858 14.6012C61.9109 14.1263 61.3516 13.7462 60.7378 13.491C60.1494 13.2462 59.498 13.1109 58.8089 13.1109H55.4712Z" fill="#565757"/>
</g>
<defs>
<clipPath id="clip0_205_4150">
<rect width="148" height="39.3543" fill="white"/>
</clipPath>
</defs>
</svg>
