<svg width="125" height="32" viewBox="0 0 125 32" fill="none" xmlns="http://www.w3.org/2000/svg">
<path d="M25.6 0H6.4C2.86538 0 0 2.86538 0 6.4V25.6C0 29.1346 2.86538 32 6.4 32H25.6C29.1346 32 32 29.1346 32 25.6V6.4C32 2.86538 29.1346 0 25.6 0Z" fill="#F7931A"/>
<path d="M4.80078 13.5988V9.79439C4.80078 9.24455 5.2465 8.79883 5.79634 8.79883H6.5579C8.88645 8.79883 10.7741 10.6865 10.7741 13.015V14.8154C10.7741 17.702 13.1142 20.0421 16.0008 20.0421C18.8873 20.0421 21.2274 17.702 21.2274 14.8154V13.015C21.2274 10.6865 23.1152 8.79883 25.4436 8.79883H26.2052C26.755 8.79883 27.2008 9.24455 27.2008 9.79439V13.5988C27.2008 19.7844 22.1864 24.7988 16.0008 24.7988C9.81519 24.7988 4.80078 19.7844 4.80078 13.5988Z" fill="white"/>
<path d="M68.8008 3.19844V2.59844C68.8008 2.48798 68.8903 2.39844 69.0008 2.39844H69.2946C69.6846 2.39844 70.0008 2.71462 70.0008 3.10465V3.48167C70.0008 3.92351 70.3589 4.28167 70.8008 4.28167C71.2425 4.28167 71.6008 3.92351 71.6008 3.48167V3.10465C71.6008 2.71462 71.917 2.39844 72.307 2.39844H72.6008C72.7112 2.39844 72.8008 2.48798 72.8008 2.59844V3.19844C72.8008 4.303 71.9053 5.19844 70.8008 5.19844C69.6962 5.19844 68.8008 4.303 68.8008 3.19844Z" fill="#F7931A"/>
<path d="M46.0635 29.6016C44.6034 29.6016 43.4034 29.4116 42.4635 29.0316C41.5234 28.6516 40.7835 28.1916 40.2434 27.6516C39.7035 27.1116 39.3134 26.5716 39.0734 26.0316C38.8535 25.5116 38.7335 25.1015 38.7134 24.8016C38.6935 24.6016 38.7534 24.4215 38.8935 24.2615C39.0535 24.1216 39.2334 24.0516 39.4334 24.0516H42.0434C42.2434 24.0516 42.4034 24.0916 42.5234 24.1716C42.6434 24.2716 42.7435 24.4416 42.8235 24.6816C42.9435 24.9415 43.1035 25.2215 43.3035 25.5216C43.5035 25.8215 43.8034 26.0716 44.2034 26.2716C44.6235 26.4916 45.1934 26.6016 45.9134 26.6016C46.6734 26.6016 47.3134 26.4916 47.8334 26.2716C48.3534 26.0516 48.7435 25.6816 49.0034 25.1616C49.2834 24.6416 49.4235 23.9216 49.4235 23.0016V20.9616C48.9435 21.5415 48.3234 22.0116 47.5634 22.3716C46.8235 22.7316 45.9035 22.9116 44.8034 22.9116C43.7234 22.9116 42.7934 22.7415 42.0135 22.4016C41.2334 22.0416 40.5835 21.5516 40.0635 20.9316C39.5435 20.2916 39.1435 19.5415 38.8635 18.6816C38.6034 17.8215 38.4535 16.8716 38.4135 15.8316C38.3934 15.2916 38.3934 14.7516 38.4135 14.2116C38.4535 13.2116 38.6034 12.2816 38.8635 11.4216C39.1234 10.5616 39.5134 9.81157 40.0334 9.17157C40.5735 8.51157 41.2334 8.00156 42.0135 7.64156C42.7934 7.28156 43.7234 7.10156 44.8034 7.10156C45.9435 7.10156 46.9035 7.32156 47.6834 7.76156C48.4635 8.18156 49.1035 8.71157 49.6034 9.35157V8.15157C49.6034 7.93157 49.6734 7.75157 49.8135 7.61157C49.9534 7.47157 50.1234 7.40156 50.3234 7.40156H52.7534C52.9534 7.40156 53.1234 7.47157 53.2635 7.61157C53.4034 7.75157 53.4734 7.93157 53.4734 8.15157L53.5035 22.6116C53.5035 24.0516 53.2334 25.2916 52.6935 26.3316C52.1534 27.3716 51.3335 28.1716 50.2334 28.7316C49.1534 29.3116 47.7634 29.6016 46.0635 29.6016ZM45.9134 19.7316C46.7335 19.7316 47.3934 19.5516 47.8935 19.1916C48.3934 18.8316 48.7634 18.3616 49.0034 17.7815C49.2434 17.2016 49.3835 16.6116 49.4235 16.0116C49.4434 15.7516 49.4535 15.4215 49.4535 15.0215C49.4535 14.6215 49.4434 14.3015 49.4235 14.0615C49.3835 13.4416 49.2434 12.8516 49.0034 12.2916C48.7634 11.7116 48.3934 11.2416 47.8935 10.8816C47.3934 10.5016 46.7335 10.3116 45.9134 10.3116C45.0935 10.3116 44.4334 10.5016 43.9335 10.8816C43.4334 11.2416 43.0734 11.7216 42.8535 12.3216C42.6535 12.9216 42.5335 13.5815 42.4935 14.3015C42.4535 14.7815 42.4535 15.2716 42.4935 15.7716C42.5335 16.4716 42.6535 17.1316 42.8535 17.7516C43.0734 18.3516 43.4334 18.8316 43.9335 19.1916C44.4334 19.5516 45.0935 19.7316 45.9134 19.7316Z" fill="#23262F"/>
<path d="M57.22 23.0004C57.02 23.0004 56.85 22.9304 56.71 22.7904C56.57 22.6504 56.5 22.4804 56.5 22.2804V8.1504C56.5 7.9304 56.57 7.7504 56.71 7.6104C56.85 7.4704 57.02 7.40039 57.22 7.40039H59.65C59.85 7.40039 60.02 7.4704 60.1599 7.6104C60.3199 7.7504 60.3999 7.9304 60.3999 8.1504V9.38039C60.86 8.74039 61.45 8.2504 62.17 7.9104C62.91 7.5704 63.7599 7.40039 64.7199 7.40039H65.95C66.17 7.40039 66.34 7.4704 66.46 7.6104C66.5999 7.7504 66.67 7.92039 66.67 8.12039V10.2804C66.67 10.4804 66.5999 10.6504 66.46 10.7904C66.34 10.9304 66.17 11.0004 65.95 11.0004H63.61C62.65 11.0004 61.9 11.2704 61.3599 11.8104C60.8399 12.3504 60.58 13.0904 60.58 14.0304V22.2804C60.58 22.4804 60.51 22.6504 60.37 22.7904C60.23 22.9304 60.05 23.0004 59.83 23.0004H57.22Z" fill="#23262F"/>
<path d="M69.5325 23.0004C69.3325 23.0004 69.1625 22.9304 69.0225 22.7904C68.8825 22.6504 68.8125 22.4804 68.8125 22.2804V8.12039C68.8125 7.92039 68.8825 7.7504 69.0225 7.6104C69.1625 7.4704 69.3325 7.40039 69.5325 7.40039H72.0225C72.2425 7.40039 72.4125 7.4704 72.5325 7.6104C72.6724 7.7504 72.7425 7.92039 72.7425 8.12039V22.2804C72.7425 22.4804 72.6724 22.6504 72.5325 22.7904C72.4125 22.9304 72.2425 23.0004 72.0225 23.0004H69.5325Z" fill="#23262F"/>
<path d="M76.4427 23.0016C76.2427 23.0016 76.0727 22.9316 75.9326 22.7916C75.7927 22.6516 75.7227 22.4816 75.7227 22.2816V8.12156C75.7227 7.92156 75.7927 7.75157 75.9326 7.61157C76.0727 7.47157 76.2427 7.40156 76.4427 7.40156H78.9026C79.1026 7.40156 79.2727 7.47157 79.4126 7.61157C79.5527 7.75157 79.6226 7.92156 79.6226 8.12156V9.35157C80.1426 8.71157 80.8027 8.18156 81.6027 7.76156C82.4226 7.32156 83.4327 7.10156 84.6327 7.10156C85.8526 7.10156 86.9127 7.38156 87.8126 7.94156C88.7127 8.48156 89.4027 9.25157 89.8827 10.2516C90.3826 11.2516 90.6327 12.4516 90.6327 13.8516V22.2816C90.6327 22.4816 90.5627 22.6516 90.4226 22.7916C90.2827 22.9316 90.1127 23.0016 89.9127 23.0016H87.2727C87.0727 23.0016 86.9026 22.9316 86.7627 22.7916C86.6226 22.6516 86.5527 22.4816 86.5527 22.2816V14.0316C86.5527 12.8716 86.2626 11.9616 85.6827 11.3016C85.1227 10.6416 84.3026 10.3116 83.2226 10.3116C82.1826 10.3116 81.3527 10.6416 80.7326 11.3016C80.1127 11.9616 79.8027 12.8716 79.8027 14.0316V22.2816C79.8027 22.4816 79.7326 22.6516 79.5927 22.7916C79.4526 22.9316 79.2827 23.0016 79.0827 23.0016H76.4427Z" fill="#23262F"/>
<path d="M100.562 23.3015C98.3424 23.3015 96.5824 22.6615 95.2823 21.3815C93.9824 20.1015 93.2823 18.2816 93.1824 15.9216C93.1623 15.7216 93.1523 15.4716 93.1523 15.1716C93.1523 14.8516 93.1623 14.6016 93.1824 14.4215C93.2624 12.9216 93.6024 11.6216 94.2023 10.5216C94.8224 9.42156 95.6723 8.58156 96.7523 8.00156C97.8323 7.40156 99.1024 7.10156 100.562 7.10156C102.182 7.10156 103.542 7.44156 104.642 8.12156C105.742 8.78156 106.572 9.71157 107.132 10.9116C107.692 12.0916 107.972 13.4615 107.972 15.0215V15.6516C107.972 15.8516 107.902 16.0215 107.762 16.1616C107.622 16.3015 107.442 16.3716 107.222 16.3716H97.2624C97.2624 16.3716 97.2624 16.4016 97.2624 16.4615C97.2624 16.5216 97.2624 16.5716 97.2624 16.6116C97.2823 17.3116 97.4124 17.9616 97.6524 18.5616C97.9123 19.1415 98.2823 19.6116 98.7623 19.9716C99.2624 20.3316 99.8524 20.5116 100.532 20.5116C101.092 20.5116 101.562 20.4316 101.942 20.2716C102.322 20.0916 102.632 19.8916 102.872 19.6716C103.112 19.4516 103.282 19.2716 103.382 19.1316C103.562 18.8916 103.702 18.7516 103.802 18.7116C103.922 18.6516 104.092 18.6215 104.312 18.6215H106.892C107.092 18.6215 107.252 18.6816 107.372 18.8016C107.512 18.9216 107.572 19.0716 107.552 19.2516C107.532 19.5716 107.362 19.9616 107.042 20.4215C106.742 20.8816 106.302 21.3316 105.722 21.7716C105.142 22.2116 104.412 22.5815 103.532 22.8816C102.672 23.1616 101.682 23.3015 100.562 23.3015ZM97.2624 13.8516H103.892V13.7616C103.892 12.9815 103.762 12.3016 103.502 11.7216C103.242 11.1416 102.862 10.6816 102.362 10.3416C101.862 10.0016 101.262 9.83157 100.562 9.83157C99.8624 9.83157 99.2624 10.0016 98.7623 10.3416C98.2624 10.6816 97.8824 11.1416 97.6224 11.7216C97.3824 12.3016 97.2624 12.9815 97.2624 13.7616V13.8516Z" fill="#23262F"/>
<path d="M109.887 23.0004C109.707 23.0004 109.547 22.9404 109.407 22.8204C109.287 22.6804 109.227 22.5204 109.227 22.3404C109.227 22.2804 109.237 22.2104 109.257 22.1304C109.297 22.0504 109.357 21.9504 109.437 21.8304L114.537 14.9904L109.797 8.5704C109.737 8.4704 109.687 8.38039 109.647 8.30039C109.627 8.22039 109.617 8.14039 109.617 8.06039C109.617 7.88039 109.677 7.7304 109.797 7.6104C109.937 7.4704 110.097 7.40039 110.277 7.40039H112.887C113.127 7.40039 113.307 7.46039 113.427 7.58039C113.547 7.70039 113.637 7.8104 113.697 7.9104L117.087 12.4104L120.477 7.9104C120.557 7.8104 120.647 7.70039 120.747 7.58039C120.867 7.46039 121.046 7.40039 121.286 7.40039H123.777C123.957 7.40039 124.107 7.4704 124.226 7.6104C124.367 7.7304 124.437 7.8704 124.437 8.0304C124.437 8.1304 124.417 8.22039 124.376 8.30039C124.357 8.38039 124.316 8.4704 124.257 8.5704L119.457 15.0504L124.587 21.8304C124.667 21.9504 124.716 22.0504 124.737 22.1304C124.776 22.2104 124.796 22.2804 124.796 22.3404C124.796 22.5204 124.727 22.6804 124.587 22.8204C124.466 22.9404 124.316 23.0004 124.136 23.0004H121.407C121.187 23.0004 121.017 22.9504 120.897 22.8504C120.777 22.7304 120.677 22.6204 120.597 22.5204L116.997 17.7504L113.337 22.5204C113.257 22.6204 113.157 22.7304 113.037 22.8504C112.937 22.9504 112.766 23.0004 112.526 23.0004H109.887Z" fill="#23262F"/>
</svg>
